<svg id="Capa_1" data-name="Capa 1" xmlns="http://www.w3.org/2000/svg" xmlns:xlink="http://www.w3.org/1999/xlink" viewBox="0 0 109.68 40"><defs><style>.cls-1{fill:#4267b2;}.cls-2,.cls-3{fill:#fff;}.cls-3{font-size:14px;font-family:ArialMT, Arial;}</style><symbol id="facebook" data-name="facebook" viewBox="0 0 109.68 40"><rect class="cls-1" width="109.68" height="40" rx="5.76"/><path class="cls-2" d="M20.22,7.69A12.23,12.23,0,0,0,18.13,32V23.58h-3V20.09h3V17.64c0-3,1.74-4.53,4.36-4.53,1.22,0,2.27.17,2.62.17v3.14H23.36c-1.39,0-1.74.7-1.74,1.75v2.27h3.49l-.53,3.49H21.79v8.38a12.09,12.09,0,0,0,10.65-12A12.23,12.23,0,0,0,20.22,7.69Z"/><text class="cls-3" transform="translate(37.32 23.73)">Facebook</text></symbol></defs><use width="109.68" height="40" xlink:href="#facebook"/></svg>