<svg id="Capa_1" data-name="Capa 1" xmlns="http://www.w3.org/2000/svg" xmlns:xlink="http://www.w3.org/1999/xlink" viewBox="0 0 109.68 40"><defs><style>.cls-1{fill:#4285f4;}.cls-2{font-size:14px;font-family:ArialMT, Arial;}.cls-2,.cls-3{fill:#fff;}.cls-4{fill:#34a853;}.cls-5{fill:#fbbc05;}.cls-6{fill:#eb4335;}</style><symbol id="bot_RS_G" data-name="bot_RS_G" viewBox="0 0 109.68 40"><rect class="cls-1" width="109.68" height="40" rx="5.76"/><text class="cls-2" transform="translate(37.32 23.73)">Google</text><path class="cls-3" d="M20.33,7.61A12.39,12.39,0,1,0,32.72,20,12.31,12.31,0,0,0,20.33,7.61Z"/><path class="cls-1" d="M29.71,20.18a6.54,6.54,0,0,0-.18-1.95h-9v3.54h5.32A5.76,5.76,0,0,1,23.87,25v.18l2.83,2.12h.18a9.59,9.59,0,0,0,2.83-7.08"/><path class="cls-4" d="M20.5,29.56a9.33,9.33,0,0,0,6.38-2.3l-3-2.3a6.33,6.33,0,0,1-3.37.88A5.92,5.92,0,0,1,15,22h-.17L12,24.25v.18a9.64,9.64,0,0,0,8.5,5.13"/><path class="cls-5" d="M15,22A7.57,7.57,0,0,1,14.84,20a7.42,7.42,0,0,1,.35-1.95v-.17L12,15.75h-.17A10.74,10.74,0,0,0,10.94,20,8.51,8.51,0,0,0,12,24.25L15,22"/><path class="cls-6" d="M20.5,14.16a5.18,5.18,0,0,1,3.72,1.41l2.66-2.65a9,9,0,0,0-6.38-2.48A9.47,9.47,0,0,0,12,15.75l3,2.48a5.85,5.85,0,0,1,5.49-4.07"/></symbol></defs><use width="109.68" height="40" xlink:href="#bot_RS_G"/></svg>